<?xml version="1.0" standalone="no"?>
<!DOCTYPE svg PUBLIC "-//W3C//DTD SVG 20010904//EN"
 "http://www.w3.org/TR/2001/REC-SVG-20010904/DTD/svg10.dtd">
<svg version="1.0" xmlns="http://www.w3.org/2000/svg"
 width="512.000000pt" height="512.000000pt" viewBox="0 0 512.000000 512.000000"
 preserveAspectRatio="xMidYMid meet">

<g transform="translate(0.000000,512.000000) scale(0.100000,-0.100000)"
fill="#000000" stroke="none">
<path d="M2498 4256 c-93 -33 -140 -95 -146 -190 -5 -71 15 -121 65 -168 64
-61 8 -58 1103 -58 882 0 1005 2 1038 16 79 33 132 110 132 194 0 88 -38 152
-115 193 l-40 22 -1000 2 c-817 2 -1007 0 -1037 -11z"/>
<path d="M554 2756 c-43 -19 -101 -81 -115 -123 -6 -19 -9 -62 -7 -94 5 -72
45 -133 109 -166 l42 -23 1977 0 1977 0 44 23 c68 36 103 93 107 175 4 83 -21
138 -87 186 l-43 31 -1986 2 c-1649 2 -1992 0 -2018 -11z"/>
<path d="M1611 1254 c-127 -64 -155 -219 -59 -329 71 -81 -40 -76 1564 -73
l1419 3 40 22 c77 41 115 105 115 193 0 84 -53 161 -132 194 -33 14 -197 16
-1466 16 l-1428 0 -53 -26z"/>
</g>
</svg>
