<?xml version="1.0" standalone="no"?>
<!DOCTYPE svg PUBLIC "-//W3C//DTD SVG 20010904//EN"
 "http://www.w3.org/TR/2001/REC-SVG-20010904/DTD/svg10.dtd">
<svg version="1.0" xmlns="http://www.w3.org/2000/svg"
 width="512.000000pt" height="512.000000pt" viewBox="0 0 512.000000 512.000000"
 preserveAspectRatio="xMidYMid meet">

<g transform="translate(0.000000,512.000000) scale(0.100000,-0.100000)"
fill="#000000" stroke="none">
<path d="M1420 4945 c-160 -33 -267 -92 -391 -215 -82 -81 -102 -108 -142
-190 -90 -183 -82 42 -85 -2225 -2 -1394 0 -2021 8 -2047 21 -74 112 -122 190
-101 20 5 364 240 788 537 415 290 759 529 766 532 7 3 354 -235 772 -527 419
-294 775 -537 794 -542 78 -22 169 27 190 101 8 26 10 653 8 2047 -3 2267 5
2042 -85 2225 -39 81 -60 109 -142 191 -82 82 -110 103 -191 142 -179 88 -74
81 -1315 84 -886 1 -1113 -1 -1165 -12z m2245 -320 c160 -42 296 -186 325
-345 7 -36 9 -671 8 -1852 l-3 -1796 -685 479 c-465 325 -695 481 -719 485
-19 4 -51 3 -71 -3 -19 -5 -341 -224 -715 -486 l-680 -477 -3 1807 c-2 1600 0
1814 13 1868 38 149 167 279 315 319 85 23 2128 23 2215 1z"/>
</g>
</svg>
